<svg xmlns="http://www.w3.org/2000/svg" width="288" height="51" fill="none"><g fill="#1E1E1E" clip-path="url(#a)"><path d="M17.522 28.87v2.36l4.233-.054q3.35.001 5.212.715a7.05 7.05 0 0 1 3.094 2.307q1.23 1.589 2.496 4.333l5.876 12.466h6.443v-1.745l-4.293-.94-5.247-10.59q-1.075-2.247-2.146-3.772a8.5 8.5 0 0 0-2.592-2.432q-1.081-.642-2.643-.984h.003q5.499-.742 8.424-3.597c2.17-2.118 3.253-4.864 3.253-8.228q0-5.36-3.539-8.198a9 9 0 0 0-.557-.41c-.035-.026-.076-.05-.11-.072q-.226-.151-.46-.294-.101-.06-.208-.12-.194-.111-.393-.213-.135-.07-.268-.134-.179-.085-.361-.166-.16-.071-.321-.14l-.327-.128c-.127-.048-.25-.096-.38-.142-.079-.029-.163-.051-.244-.077-.664-.22-1.369-.402-2.123-.545-.093-.299-.202-.59-.315-.875h.003q-.019-.042-.038-.088-.103-.252-.216-.496-.038-.08-.075-.163-.154-.316-.327-.621-1.58-2.77-4.643-4.302a13 13 0 0 0-2.525-.93Q19.915 0 16.994 0H9.098L0 .31v1.745l5.94.727V40.63l-5.94.95v1.744h13.547V40.89l-4.513-.365v-14.47h5.495a31 31 0 0 0 1.468-.034c.052 0 .1-.006.153-.009q.301-.016.598-.037c.032 0 .063-.006.095-.006q.344-.025.673-.06h.006q.829-.084 1.61-.216l.069-.012q.759-.132 1.47-.307.054-.012.107-.029a19 19 0 0 0 1.35-.402c.034-.011.069-.026.103-.037q.261-.091.518-.191.08-.032.158-.063.3-.12.59-.248 3.663-1.65 5.558-4.769.355-.586.645-1.206.19-.415.355-.846.165-.433.295-.879.599-2.012.6-4.364-.001-.303-.01-.596a20 20 0 0 0-.05-.838q.51.176.974.39.167.078.329.16.058.029.116.057.203.108.398.223.066.04.13.08.13.08.254.165l.162.11q.116.082.228.172l.113.086q2.81 2.244 2.811 6.545 0 4.926-3.412 7.449-3.411 2.524-9.73 2.526h-5.75m.01 0v-2.104q-1.435.141-2.994.142h-.104v14.057h-.02v2.36h.02v4.972l-5.937.958V51h16.3v-1.745l-7.266-.975V31.23m7.185-10.953q-.203.198-.416.385-.196.17-.396.331-.059.047-.124.094-.15.115-.303.225l-.13.094q-.201.138-.41.271-.013.01-.03.017-.22.136-.45.262-.075.043-.15.08-.166.09-.335.171-.081.04-.162.08a20 20 0 0 1-.43.194l-.073.031q-.242.101-.494.194-.09.033-.182.066-.178.064-.36.122c-.064.02-.128.043-.195.06q-.224.068-.453.131l-.107.029q-.27.07-.546.131l-.208.043q-.194.042-.393.077-.11.02-.22.04c-.161.028-.323.051-.488.077q-.064.01-.124.02-.031.002-.064.008-.314.044-.638.074h-.012q-.35.035-.71.057c-.023 0-.05 0-.072.003q-.332.022-.67.032-.38.011-.766.01H9.037V2.433h7.517q3.779 0 6.304 1.268a8.5 8.5 0 0 1 2.037 1.414q.189.181.364.365l.087.094q.152.166.292.337l.043.05a9 9 0 0 1 .358.483q.125.183.246.37c.176.285.338.576.482.884a33 33 0 0 0-1.08-.02h-8.035l-3.212.108-.012 2.01v13.04h.165q1.555-.002 2.93-.2v-12.53h7.785q.312 0 .616.01c.107 0 .21.008.314.01q.14.005.275.012c.352.017.7.043 1.034.077q.068.399.11.816.031.309.05.627c0 .034.005.065.005.1q.019.35.02.712 0 4.853-3.025 7.811z"/><path d="M18.383 43.323h3.65l-.036-1.744-3.614-.294zM57.735 42.69v-5.752H55.8v-.807h4.775v.807H58.64v5.752h-.904M66.22 42.692v-6.557h2.156q.694 0 1.21.21.517.21.803.65.286.442.286 1.135c0 .462-.098.827-.297 1.13q-.297.452-.861.715l1.49 2.716h-1.1l-1.35-2.557h-1.386v2.557zm.95-3.353h1.197q.68 0 1.023-.322c.228-.217.344-.51.344-.887 0-.376-.116-.675-.344-.886q-.343-.313-1.023-.314h-1.196v2.4090000000000003M76.693 42.692v-6.557h.902v6.557zM85.892 37.004h.266l-2.04 5.688h-.95l2.383-6.557h.95l2.384 6.557h-.95l-2.04-5.688zm1.557 3.917h-2.848v-.807h2.848zM94.452 42.692v-6.557h.902v5.753h3.048v.806h-3.95zM110.839 42.692v-6.557h.902v5.753h3.048v.806h-3.95zM122.372 37.004h.266l-2.039 5.688h-.951l2.383-6.557h.951l2.383 6.557h-.95l-2.04-5.688zm1.558 3.917h-2.849v-.807h2.849zM132.094 42.692l-1.881-6.557h.951l1.404 5.405 1.624-5.274h.95l1.624 5.274 1.404-5.405h.95l-1.88 6.557h-.96l-1.615-5.274-1.615 5.273h-.959zM146.144 42.692v-2.84l-2.346-3.717h1.025l1.974 3.184h-.419l1.973-3.184h1.026l-2.335 3.717v2.84h-.901zM154.791 42.692v-6.557h4.053v.806h-3.152v1.922h2.505v.807h-2.505v2.22h3.236v.807h-4.14zM164.798 42.692v-6.557h2.156q.694 0 1.21.21.517.21.803.65.286.442.286 1.135c0 .462-.098.827-.297 1.13q-.297.452-.861.715l1.491 2.716h-1.101l-1.349-2.557h-1.387v2.557zm.948-3.353h1.196q.681 0 1.023-.322c.228-.217.344-.51.344-.887 0-.376-.116-.675-.344-.886q-.342-.313-1.023-.314h-1.196v2.4090000000000003M177.167 42.822q-.414 0-.827-.06a7 7 0 0 1-.765-.157 4 4 0 0 1-.584-.202l.124-.947q.258.121.619.254.362.132.785.22.422.089.856.088.64 0 1.017-.23.377-.233.378-.725a.94.94 0 0 0-.191-.607 1.5 1.5 0 0 0-.572-.405 8 8 0 0 0-.956-.336 6.7 6.7 0 0 1-1.005-.377 1.94 1.94 0 0 1-.737-.584q-.277-.367-.277-.978-.001-.52.271-.92.274-.403.803-.625.53-.226 1.297-.225.656-.001 1.202.14.548.14.905.307l-.096.947a4.3 4.3 0 0 0-1.031-.453 3.8 3.8 0 0 0-1.017-.137q-.584 0-.965.216c-.254.143-.381.38-.381.702q0 .328.17.536t.509.356q.338.146.84.297.693.204 1.191.47.497.265.765.65.265.385.266.958 0 .422-.162.758a1.5 1.5 0 0 1-.485.576q-.323.24-.809.365a4.5 4.5 0 0 1-1.138.125zM63.56 21.877h-2.75l.678-.519v6.834l-.494-.642 3.741.67v1.616H55.8V28.22l3.062-.701-.526.67V10.158l.587.7-3.123-.61V8.633l5.752-.153h3.276q2.443-.001 4.019.823 1.577.825 2.348 2.258.774 1.434.775 3.296 0 2.044-.928 3.632-.927 1.587-2.8 2.485-1.87.902-4.682.901zm.771-11.104h-3.372l.526-.55v9.884l-.679-.52h2.75q2.505 0 3.849-1.265 1.344-1.267 1.346-3.4c0-1.284-.375-2.293-1.13-3.037-.753-.741-1.848-1.114-3.293-1.114zM83.84 30.148q-2.751 0-4.885-1.206t-3.34-3.6q-1.203-2.396-1.204-5.936-.001-2.807.757-4.912.757-2.104 2.117-3.51a8.8 8.8 0 0 1 3.17-2.103q1.808-.701 3.912-.701c1.4 0 2.658.225 3.834.67a8.44 8.44 0 0 1 3.062 1.998c.867.884 1.534 1.993 2.01 3.327q.712 1.998.711 4.62 0 3.571-1.314 6.119-1.314 2.549-3.603 3.89-2.288 1.344-5.226 1.344m.218-2.44q1.794 0 3.276-.884Q88.816 25.939 89.7 24q.88-1.936.881-5.048c0-2.076-.274-3.57-.82-4.79q-.819-1.83-2.257-2.685t-3.262-.855c-1.216 0-2.276.29-3.247.87q-1.453.867-2.32 2.762-.867 1.89-.867 5.034-.001 2.96.821 4.806.819 1.847 2.227 2.732 1.409.884 3.202.883zM117.328 8.638l7.792-.154v1.617l-2.938.67.774-.824-5.689 19.92h-3.03l-5.134-17.571.557.031-5.411 17.544h-2.999l-5.255-19.679.37.55-2.597-.487V8.638l8.101-.154v1.617l-3.063.701.402-.61 4.111 16.81h-.65l5.472-18.395 2.906-.123 5.227 18.459h-.65l4.544-16.748.309.61-3.155-.55V8.638zM141.073 24.594h1.919l-.032 5.248h-15.769v-1.616l2.999-.701-.465.67V10.223l.433.642-2.967-.61V8.638l5.628-.154h9.771v5.035h-1.886l-.587-3.204.618.459h-8.378l.526-.52v8.085l-.526-.518h7.945v2.226h-7.945l.526-.61v8.635l-.526-.519h8.78l-.65.519zM146.268 29.842v-1.616l2.967-.67-.433.641v-17.97l.586.67-3.123-.642V8.638l5.813-.154h3.4q3.587 0 5.412 1.466 1.824 1.462 1.823 4.242-.001 2.501-1.592 4.119-1.595 1.617-4.9 1.984v-.365q1.206.092 1.964.473.76.383 1.283 1.038.525.659.988 1.602l2.566 5.035-.96-.61 2.69.764v1.616h-4.235l-2.814-5.981q-.59-1.25-1.084-1.939-.493-.687-1.204-.96-.711-.274-2.072-.274l-1.947.032.558-.488V28.2l-.466-.67 3.433.702v1.616h-8.659zm5.688-10.556-.557-.793h2.814q2.564 0 3.912-1.037c.895-.69 1.346-1.72 1.346-3.082q0-1.74-1.098-2.668-1.098-.931-3.262-.93h-3.709l.557-.55v9.063zM172.674 29.842v-1.616l2.967-.67-.433.641v-17.97l.586.67-3.123-.642V8.638l5.813-.154h3.4q3.588 0 5.412 1.466 1.824 1.462 1.823 4.242-.001 2.501-1.592 4.119-1.594 1.617-4.9 1.984v-.365q1.205.092 1.964.473.76.383 1.283 1.038.525.659.988 1.602l2.566 5.035-.959-.61 2.689.764v1.616h-4.235l-2.814-5.981q-.59-1.25-1.083-1.939-.495-.687-1.205-.96-.71-.274-2.072-.274l-1.947.032.558-.488V28.2l-.465-.67 3.432.702v1.616h-8.659zm5.689-10.556-.558-.793h2.814q2.564 0 3.912-1.037c.895-.69 1.346-1.72 1.346-3.082q0-1.74-1.098-2.668-1.098-.931-3.262-.93h-3.709l.558-.55v9.063zM201.056 30.148q-2.752 0-4.885-1.206t-3.34-3.6q-1.205-2.396-1.205-5.936 0-2.807.757-4.912.758-2.104 2.118-3.51a8.8 8.8 0 0 1 3.169-2.103q1.809-.701 3.912-.701c1.401 0 2.658.225 3.834.67a8.4 8.4 0 0 1 3.062 1.998c.867.884 1.534 1.993 2.011 3.327q.711 1.998.711 4.62 0 3.571-1.315 6.119-1.314 2.549-3.602 3.89-2.289 1.344-5.227 1.344m.217-2.44q1.794 0 3.276-.884 1.482-.885 2.366-2.823.88-1.936.881-5.048c0-2.076-.274-3.57-.82-4.79q-.818-1.83-2.256-2.685-1.439-.855-3.262-.855c-1.216 0-2.277.29-3.247.87q-1.453.867-2.32 2.762-.867 1.89-.867 5.034-.002 2.96.82 4.806.82 1.847 2.228 2.732 1.408.884 3.201.883zM223.256 30.116q-3 0-5.241-1.22-2.242-1.219-3.478-3.632-1.237-2.412-1.237-5.918c0-2.337.413-4.373 1.237-6.04q1.236-2.502 3.556-3.815 2.32-1.312 5.536-1.311 1.698 0 3.57.382 1.873.38 3.788 1.206l-.248 4.971h-1.887l-.618-3.66.494.487a18 18 0 0 0-2.505-.687q-1.3-.26-2.473-.26-2.165.001-3.756 1.007-1.593 1.006-2.441 2.928-.849 1.92-.849 4.73-.001 3.997 1.823 6.194t5.133 2.198q1.05 0 2.228-.228c.783-.154 1.598-.39 2.441-.716l-.401.702v-6.315l.557.55-3.091-.459v-1.679l7.945-.153v1.678l-2.814.642.37-.579v7.352a21.5 21.5 0 0 1-3.973 1.252q-1.933.397-3.663.396zM248.269 24.594h1.919l-.032 5.248h-15.769v-1.616l2.999-.701-.465.67V10.223l.434.642-2.968-.61V8.638l5.628-.154h9.771v5.035H247.9l-.587-3.204.618.459h-8.378l.526-.52v8.085l-.526-.518h7.945v2.226h-7.945l.526-.61v8.635l-.526-.519h8.78l-.65.519zM252.846 29.842v-1.616l2.967-.67-.434.641v-17.97l.587.67-3.123-.642V8.638l5.813-.154h3.4q3.588 0 5.411 1.466 1.824 1.462 1.823 4.242 0 2.501-1.592 4.119-1.594 1.617-4.899 1.984v-.365q1.206.092 1.964.473.758.383 1.283 1.038.524.659.988 1.602l2.565 5.035-.959-.61 2.69.764v1.616h-4.235l-2.814-5.981q-.59-1.25-1.084-1.939-.494-.687-1.204-.96-.711-.274-2.072-.274l-1.947.032.557-.488V28.2l-.465-.67 3.433.702v1.616h-8.659zm5.688-10.556-.557-.793h2.814q2.565 0 3.911-1.037c.896-.69 1.347-1.72 1.347-3.082q0-1.74-1.098-2.668-1.098-.931-3.262-.93h-3.709l.557-.55v9.063zM276.559 13.733q-.001 1.07.619 1.753c.413.46.959.838 1.638 1.143q1.019.457 2.242.824 1.222.367 2.441.824 1.22.457 2.242 1.129a5.14 5.14 0 0 1 1.638 1.739q.619 1.07.618 2.685.001 2.167-1.13 3.57-1.13 1.402-2.998 2.075-1.872.67-4.129.67-1.577 0-3.215-.32a18 18 0 0 1-3.248-.96l.185-5.248h1.855l.586 3.814-.34-.579q1.017.458 2.149.701 1.127.245 2.21.246 1.33 0 2.459-.397 1.127-.397 1.808-1.188.68-.792.679-1.985 0-1.128-.618-1.83-.62-.701-1.638-1.16a19 19 0 0 0-2.228-.824 63 63 0 0 1-2.426-.792 10.5 10.5 0 0 1-2.242-1.084 5 5 0 0 1-1.638-1.707q-.62-1.053-.619-2.64 0-2.044 1.006-3.373 1.005-1.325 2.721-1.984 1.716-.655 3.848-.655 1.517-.001 3.138.319 1.624.32 3.201.96l-.277 4.972h-1.887l-.526-3.537.402.396a9.5 9.5 0 0 0-1.887-.565c-.679-.13-1.36-.2-2.039-.2q-1.207 0-2.257.32-1.052.32-1.701 1.024-.65.702-.65 1.861z"/></g><defs><clipPath id="a"><path fill="#1E1E1E" d="M0 0h288v51H0z"/></clipPath></defs></svg>